<?xml version="1.0" encoding="UTF-8" standalone="no"?>
<!DOCTYPE svg PUBLIC "-//W3C//DTD SVG 1.1//EN"
 "http://www.w3.org/Graphics/SVG/1.1/DTD/svg11.dtd">
<!-- Generated by graphviz version 2.40.1 (20161225.0304)
 -->
<!-- Title: %3 Pages: 1 -->
<svg width="996pt" height="472pt"
 viewBox="0.00 0.00 996.43 472.20" xmlns="http://www.w3.org/2000/svg" xmlns:xlink="http://www.w3.org/1999/xlink">
<g id="graph0" class="graph" transform="scale(1 1) rotate(0) translate(4 468.2)">
<title>%3</title>
<polygon fill="#ffffff" stroke="transparent" points="-4,4 -4,-468.2 992.4345,-468.2 992.4345,4 -4,4"/>
<!-- node0 -->
<g id="node1" class="node">
<title>node0</title>
<ellipse fill="none" stroke="#000000" cx="484" cy="-373.2" rx="174.1826" ry="18"/>
<text text-anchor="middle" x="484" y="-369" font-family="Times,serif" font-size="14.00" fill="#000000">I absolutely want to be a college professor</text>
</g>
<!-- node1 -->
<g id="node3" class="node">
<title>node1</title>
<ellipse fill="none" stroke="#000000" cx="380" cy="-284.4" rx="86.8629" ry="18"/>
<text text-anchor="middle" x="380" y="-280.2" font-family="Times,serif" font-size="14.00" fill="#000000">I work 9&#45;5 Mon&#45;Fri</text>
</g>
<!-- node0&#45;&gt;node1 -->
<g id="edge2" class="edge">
<title>node0&#45;&gt;node1</title>
<path fill="none" stroke="#000000" d="M462.954,-355.23C447.3459,-341.903 425.8878,-323.5811 408.7063,-308.9108"/>
<polygon fill="#000000" stroke="#000000" points="410.5374,-305.872 400.6597,-302.0402 405.992,-311.1954 410.5374,-305.872"/>
<text text-anchor="middle" x="445.5" y="-324.6" font-family="Times,serif" font-size="14.00" fill="#000000">0</text>
</g>
<!-- node12 -->
<g id="node10" class="node">
<title>node12</title>
<ellipse fill="none" stroke="#000000" cx="588" cy="-284.4" rx="92.0594" ry="18"/>
<text text-anchor="middle" x="588" y="-280.2" font-family="Times,serif" font-size="14.00" fill="#000000">I love doing research</text>
</g>
<!-- node0&#45;&gt;node12 -->
<g id="edge9" class="edge">
<title>node0&#45;&gt;node12</title>
<path fill="none" stroke="#000000" d="M505.046,-355.23C520.6541,-341.903 542.1122,-323.5811 559.2937,-308.9108"/>
<polygon fill="#000000" stroke="#000000" points="562.008,-311.1954 567.3403,-302.0402 557.4626,-305.872 562.008,-311.1954"/>
<text text-anchor="middle" x="549.5" y="-324.6" font-family="Times,serif" font-size="14.00" fill="#000000">1</text>
</g>
<!-- Root -->
<g id="node2" class="node">
<title>Root</title>
<ellipse fill="none" stroke="#000000" cx="484" cy="-446.2" rx="29.6358" ry="18"/>
<text text-anchor="middle" x="484" y="-442" font-family="Times,serif" font-size="14.00" fill="#000000">Root</text>
</g>
<!-- Root&#45;&gt;node0 -->
<g id="edge1" class="edge">
<title>Root&#45;&gt;node0</title>
<path fill="none" stroke="#000000" d="M484,-428.1551C484,-420.0828 484,-410.3764 484,-401.3817"/>
<polygon fill="#000000" stroke="#000000" points="487.5001,-401.2903 484,-391.2904 480.5001,-401.2904 487.5001,-401.2903"/>
</g>
<!-- node2 -->
<g id="node4" class="node">
<title>node2</title>
<ellipse fill="none" stroke="#000000" cx="172" cy="-195.6" rx="162.6663" ry="18"/>
<text text-anchor="middle" x="172" y="-191.4" font-family="Times,serif" font-size="14.00" fill="#000000">I am OK being with judged all the time</text>
</g>
<!-- node1&#45;&gt;node2 -->
<g id="edge3" class="edge">
<title>node1&#45;&gt;node2</title>
<path fill="none" stroke="#000000" d="M341.8496,-268.1127C308.3673,-253.8183 259.4159,-232.9199 222.6564,-217.2264"/>
<polygon fill="#000000" stroke="#000000" points="223.6847,-213.8598 213.1135,-213.1523 220.9362,-220.2977 223.6847,-213.8598"/>
<text text-anchor="middle" x="298.5" y="-235.8" font-family="Times,serif" font-size="14.00" fill="#000000">0</text>
</g>
<!-- node10 -->
<g id="node9" class="node">
<title>node10</title>
<ellipse fill="none" stroke="#000000" cx="380" cy="-195.6" rx="27" ry="18"/>
<text text-anchor="middle" x="380" y="-191.4" font-family="Times,serif" font-size="14.00" fill="#000000">0</text>
</g>
<!-- node1&#45;&gt;node10 -->
<g id="edge8" class="edge">
<title>node1&#45;&gt;node10</title>
<path fill="none" stroke="#000000" d="M380,-266.0006C380,-253.8949 380,-237.8076 380,-224.0674"/>
<polygon fill="#000000" stroke="#000000" points="383.5001,-223.672 380,-213.672 376.5001,-223.6721 383.5001,-223.672"/>
<text text-anchor="middle" x="383.5" y="-235.8" font-family="Times,serif" font-size="14.00" fill="#000000">1</text>
</g>
<!-- node3 -->
<g id="node5" class="node">
<title>node3</title>
<ellipse fill="none" stroke="#000000" cx="27" cy="-106.8" rx="27" ry="18"/>
<text text-anchor="middle" x="27" y="-102.6" font-family="Times,serif" font-size="14.00" fill="#000000">0</text>
</g>
<!-- node2&#45;&gt;node3 -->
<g id="edge4" class="edge">
<title>node2&#45;&gt;node3</title>
<path fill="none" stroke="#000000" d="M143.0056,-177.8434C117.685,-162.3367 81.1295,-139.9496 55.8513,-124.4689"/>
<polygon fill="#000000" stroke="#000000" points="57.446,-121.3414 47.0902,-119.1035 53.7902,-127.3109 57.446,-121.3414"/>
<text text-anchor="middle" x="116.5" y="-147" font-family="Times,serif" font-size="14.00" fill="#000000">0</text>
</g>
<!-- node5 -->
<g id="node6" class="node">
<title>node5</title>
<ellipse fill="none" stroke="#000000" cx="256" cy="-106.8" rx="183.9307" ry="18"/>
<text text-anchor="middle" x="256" y="-102.6" font-family="Times,serif" font-size="14.00" fill="#000000">I need a clear target and immediate feedback</text>
</g>
<!-- node2&#45;&gt;node5 -->
<g id="edge5" class="edge">
<title>node2&#45;&gt;node5</title>
<path fill="none" stroke="#000000" d="M188.9987,-177.63C201.2951,-164.6308 218.087,-146.8795 231.7839,-132.3999"/>
<polygon fill="#000000" stroke="#000000" points="234.6972,-134.4132 239.0266,-124.7433 229.612,-129.6028 234.6972,-134.4132"/>
<text text-anchor="middle" x="225.5" y="-147" font-family="Times,serif" font-size="14.00" fill="#000000">1</text>
</g>
<!-- node6 -->
<g id="node7" class="node">
<title>node6</title>
<ellipse fill="none" stroke="#000000" cx="220" cy="-18" rx="27" ry="18"/>
<text text-anchor="middle" x="220" y="-13.8" font-family="Times,serif" font-size="14.00" fill="#000000">1</text>
</g>
<!-- node5&#45;&gt;node6 -->
<g id="edge6" class="edge">
<title>node5&#45;&gt;node6</title>
<path fill="none" stroke="#000000" d="M248.5408,-88.4006C243.4696,-75.8917 236.6749,-59.1315 230.9874,-45.1024"/>
<polygon fill="#000000" stroke="#000000" points="234.0829,-43.4219 227.0822,-35.4695 227.5958,-46.0519 234.0829,-43.4219"/>
<text text-anchor="middle" x="245.5" y="-58.2" font-family="Times,serif" font-size="14.00" fill="#000000">0</text>
</g>
<!-- node8 -->
<g id="node8" class="node">
<title>node8</title>
<ellipse fill="none" stroke="#000000" cx="292" cy="-18" rx="27" ry="18"/>
<text text-anchor="middle" x="292" y="-13.8" font-family="Times,serif" font-size="14.00" fill="#000000">0</text>
</g>
<!-- node5&#45;&gt;node8 -->
<g id="edge7" class="edge">
<title>node5&#45;&gt;node8</title>
<path fill="none" stroke="#000000" d="M263.4592,-88.4006C268.5304,-75.8917 275.3251,-59.1315 281.0126,-45.1024"/>
<polygon fill="#000000" stroke="#000000" points="284.4042,-46.0519 284.9178,-35.4695 277.9171,-43.4219 284.4042,-46.0519"/>
<text text-anchor="middle" x="281.5" y="-58.2" font-family="Times,serif" font-size="14.00" fill="#000000">1</text>
</g>
<!-- node13 -->
<g id="node11" class="node">
<title>node13</title>
<ellipse fill="none" stroke="#000000" cx="588" cy="-195.6" rx="162.6663" ry="18"/>
<text text-anchor="middle" x="588" y="-191.4" font-family="Times,serif" font-size="14.00" fill="#000000">I am OK being with judged all the time</text>
</g>
<!-- node12&#45;&gt;node13 -->
<g id="edge10" class="edge">
<title>node12&#45;&gt;node13</title>
<path fill="none" stroke="#000000" d="M588,-266.0006C588,-253.8949 588,-237.8076 588,-224.0674"/>
<polygon fill="#000000" stroke="#000000" points="591.5001,-223.672 588,-213.672 584.5001,-223.6721 591.5001,-223.672"/>
<text text-anchor="middle" x="591.5" y="-235.8" font-family="Times,serif" font-size="14.00" fill="#000000">1</text>
</g>
<!-- node21 -->
<g id="node16" class="node">
<title>node21</title>
<ellipse fill="none" stroke="#000000" cx="796" cy="-195.6" rx="27" ry="18"/>
<text text-anchor="middle" x="796" y="-191.4" font-family="Times,serif" font-size="14.00" fill="#000000">0</text>
</g>
<!-- node12&#45;&gt;node21 -->
<g id="edge15" class="edge">
<title>node12&#45;&gt;node21</title>
<path fill="none" stroke="#000000" d="M629.7216,-268.2175C664.7817,-254.3831 716.0595,-233.5963 760,-213.6 761.7649,-212.7968 763.5702,-211.9563 765.3864,-211.0959"/>
<polygon fill="#000000" stroke="#000000" points="766.954,-214.2256 774.4215,-206.7098 763.897,-207.9283 766.954,-214.2256"/>
<text text-anchor="middle" x="720.5" y="-235.8" font-family="Times,serif" font-size="14.00" fill="#000000">0</text>
</g>
<!-- node14 -->
<g id="node12" class="node">
<title>node14</title>
<ellipse fill="none" stroke="#000000" cx="563" cy="-106.8" rx="27" ry="18"/>
<text text-anchor="middle" x="563" y="-102.6" font-family="Times,serif" font-size="14.00" fill="#000000">1</text>
</g>
<!-- node13&#45;&gt;node14 -->
<g id="edge11" class="edge">
<title>node13&#45;&gt;node14</title>
<path fill="none" stroke="#000000" d="M582.82,-177.2006C579.3553,-164.8941 574.7322,-148.4728 570.8225,-134.5855"/>
<polygon fill="#000000" stroke="#000000" points="574.0819,-133.2472 568.0028,-124.5699 567.3438,-135.1442 574.0819,-133.2472"/>
<text text-anchor="middle" x="580.5" y="-147" font-family="Times,serif" font-size="14.00" fill="#000000">1</text>
</g>
<!-- node16 -->
<g id="node13" class="node">
<title>node16</title>
<ellipse fill="none" stroke="#000000" cx="798" cy="-106.8" rx="190.3691" ry="18"/>
<text text-anchor="middle" x="798" y="-102.6" font-family="Times,serif" font-size="14.00" fill="#000000">I can deal with extreme stress and competition</text>
</g>
<!-- node13&#45;&gt;node16 -->
<g id="edge12" class="edge">
<title>node13&#45;&gt;node16</title>
<path fill="none" stroke="#000000" d="M629.2387,-178.1619C662.9012,-163.9275 710.6353,-143.7428 746.7517,-128.4707"/>
<polygon fill="#000000" stroke="#000000" points="748.2901,-131.6203 756.1374,-124.5019 745.5638,-125.173 748.2901,-131.6203"/>
<text text-anchor="middle" x="714.5" y="-147" font-family="Times,serif" font-size="14.00" fill="#000000">0</text>
</g>
<!-- node17 -->
<g id="node14" class="node">
<title>node17</title>
<ellipse fill="none" stroke="#000000" cx="762" cy="-18" rx="27" ry="18"/>
<text text-anchor="middle" x="762" y="-13.8" font-family="Times,serif" font-size="14.00" fill="#000000">0</text>
</g>
<!-- node16&#45;&gt;node17 -->
<g id="edge13" class="edge">
<title>node16&#45;&gt;node17</title>
<path fill="none" stroke="#000000" d="M790.5408,-88.4006C785.4696,-75.8917 778.6749,-59.1315 772.9874,-45.1024"/>
<polygon fill="#000000" stroke="#000000" points="776.0829,-43.4219 769.0822,-35.4695 769.5958,-46.0519 776.0829,-43.4219"/>
<text text-anchor="middle" x="786.5" y="-58.2" font-family="Times,serif" font-size="14.00" fill="#000000">1</text>
</g>
<!-- node19 -->
<g id="node15" class="node">
<title>node19</title>
<ellipse fill="none" stroke="#000000" cx="834" cy="-18" rx="27" ry="18"/>
<text text-anchor="middle" x="834" y="-13.8" font-family="Times,serif" font-size="14.00" fill="#000000">1</text>
</g>
<!-- node16&#45;&gt;node19 -->
<g id="edge14" class="edge">
<title>node16&#45;&gt;node19</title>
<path fill="none" stroke="#000000" d="M805.4592,-88.4006C810.5304,-75.8917 817.3251,-59.1315 823.0126,-45.1024"/>
<polygon fill="#000000" stroke="#000000" points="826.4042,-46.0519 826.9178,-35.4695 819.9171,-43.4219 826.4042,-46.0519"/>
<text text-anchor="middle" x="822.5" y="-58.2" font-family="Times,serif" font-size="14.00" fill="#000000">0</text>
</g>
</g>
</svg>
